P2
128 96
255
226 206 206 211 212 211 211 210 209 209 208 208 207 207 207 206 203 201 199 198 
195 192 190 188 186 186 187 186 186 185 185 185 185 183 183 183 184 183 183 183 
183 183 183 183 184 184 184 185 161 157 156 159 159 161 163 172 175 176 176 174 
174 175 175 171 168 165 165 168 171 173 172 172 172 174 177 181 233 248 248 248 
248 248 248 248 248 248 248 248 248 248 248 248 248 248 248 248 248 248 248 248 
248 248 248 248 248 248 248 248 248 248 248 248 248 248 248 248 248 248 248 248 
248 248 248 248 248 248 248 248 213 203 203 210 210 212 210 210 210 210 210 210 
209 209 208 207 206 203 200 199 196 193 191 188 187 185 186 185 185 185 184 184 
184 183 183 183 183 183 183 182 182 181 181 181 182 183 184 182 149 156 156 158 
159 160 162 173 174 176 177 174 174 176 175 172 168 166 165 168 171 172 172 171 
169 173 175 180 222 248 248 248 248 248 248 248 248 248 248 248 248 248 248 248 
248 248 248 248 248 248 248 248 248 248 248 248 248 248 248 248 248 248 248 248 
248 248 248 248 248 248 248 248 248 248 248 248 248 248 248 248 205 201 202 212 
211 212 211 211 210 211 210 211 210 209 209 208 207 205 202 199 199 195 192 190 
187 186 185 185 186 185 183 183 183 182 182 182 182 181 181 181 181 181 181 180 
181 184 184 168 150 151 155 156 158 159 162 167 165 167 169 169 174 174 170 168 
167 165 166 168 171 173 173 170 170 173 175 178 208 248 248 248 248 248 248 248 
248 248 248 248 248 248 248 248 248 248 248 248 248 248 248 248 248 248 248 248 
248 248 248 248 248 248 248 248 248 248 248 248 248 248 248 248 248 248 248 248 
248 248 248 248 202 200 203 212 212 212 211 211 211 210 210 209 201 190 182 168 
167 170 171 190 198 197 194 191 189 187 186 186 186 184 184 182 182 181 181 181 
181 181 181 181 180 181 179 176 174 173 171 169 171 198 208 192 172 162 161 163 
163 164 165 167 172 172 170 170 167 168 165 169 171 174 173 172 174 176 176 179 
209 248 248 248 248 248 248 248 248 248 248 248 248 248 248 248 248 248 248 248 
248 248 248 248 248 248 248 248 248 248 248 248 248 248 248 248 248 248 248 248 
248 248 248 248 248 248 248 248 248 248 248 248 200 199 206 212 211 210 207 208 
208 208 198 174 154 148 140 137 132 128 131 135 144 165 185 189 189 188 186 186 
184 183 184 181 181 181 181 181 180 180 181 180 178 173 172 172 170 167 166 168 
182 185 182 183 190 192 177 168 163 163 164 165 170 168 168 171 167 165 166 168 
171 175 173 172 178 181 177 184 215 248 248 248 248 248 248 248 248 248 248 248 
248 248 248 248 248 248 248 248 248 248 248 248 248 248 248 248 248 248 248 248 
248 248 248 248 248 248 248 248 248 248 248 248 248 248 248 248 248 248 248 248 
199 199 203 208 207 206 206 205 203 176 151 144 134 130 128 130 127 130 131 130 
130 134 130 145 157 175 180 186 186 183 183 182 180 181 180 180 180 179 179 173 
172 172 171 171 169 169 175 173 170 170 172 171 169 173 181 181 173 164 163 164 
165 166 166 169 168 166 166 169 171 173 176 177 180 181 179 192 242 248 248 248 
248 248 248 248 248 248 248 248 248 248 248 248 248 248 248 248 248 248 248 248 
248 248 248 248 248 248 248 248 248 248 248 248 248 248 248 248 248 248 248 248 
248 248 248 248 248 248 248 248 198 198 200 202 203 204 203 181 162 147 139 131 
126 126 123 119 121 123 124 121 132 134 130 129 134 140 172 167 184 183 183 181 
179 180 180 179 179 178 172 172 171 171 173 176 179 176 172 167 164 162 159 158 
160 161 165 170 181 168 166 162 163 163 164 167 165 165 168 170 172 174 176 181 
184 182 181 212 245 248 248 248 248 248 248 248 248 248 248 248 248 248 248 248 
248 248 248 248 248 248 248 248 248 248 248 248 248 248 248 248 248 248 248 248 
248 248 248 248 248 248 248 248 248 248 248 248 248 248 248 248 196 197 199 200 
201 202 189 154 145 136 135 128 121 123 117 118 120 122 125 126 128 140 140 136 
131 130 132 168 185 183 181 181 178 179 179 177 177 171 170 171 175 181 186 181 
178 173 169 164 160 154 151 152 153 154 157 159 164 175 167 169 163 163 164 169 
165 165 166 170 173 176 176 183 184 181 181 236 245 248 248 248 248 248 248 248 
248 248 248 248 248 248 248 248 248 248 248 248 248 248 248 248 248 248 248 248 
248 248 248 248 248 248 248 248 248 248 248 248 248 248 248 248 248 248 248 248 
248 248 248 248 195 196 198 199 200 194 151 139 135 128 126 124 121 119 113 117 
114 122 124 120 125 131 133 138 141 147 152 168 183 183 181 180 176 176 178 176 
168 165 168 188 194 189 183 178 177 172 167 162 154 147 144 145 148 150 151 153 
155 161 172 170 169 164 165 165 163 164 164 167 176 176 177 182 184 180 190 244 
248 248 248 248 248 248 248 248 248 248 248 248 248 248 248 248 248 248 248 247 
247 247 248 248 248 248 248 248 248 248 248 248 248 248 248 248 248 248 248 248 
248 248 248 248 248 248 248 248 248 248 248 248 194 195 197 198 198 161 131 135 
128 124 121 121 122 120 121 118 116 124 126 128 124 130 137 141 144 147 152 164 
175 182 181 179 176 174 175 166 160 161 178 195 191 184 180 178 174 170 165 163 
158 152 146 146 146 149 149 150 149 153 159 168 173 164 164 166 166 164 165 169 
175 176 178 182 184 181 193 218 248 248 248 248 248 248 248 248 248 248 248 248 
248 248 247 247 246 246 246 246 246 245 246 247 247 248 248 248 248 248 248 248 
248 248 248 248 248 248 248 248 248 248 248 248 248 248 248 248 248 248 248 248 
192 193 195 197 194 151 125 123 117 120 122 122 129 123 122 117 119 121 121 126 
125 131 137 143 146 149 147 148 161 173 181 178 175 172 166 158 160 162 164 176 
189 183 180 177 173 170 166 164 161 157 153 151 150 150 149 149 148 150 150 154 
180 178 163 167 168 164 165 169 173 176 179 182 186 191 196 243 248 248 248 248 
248 248 248 248 248 248 248 248 248 248 246 243 239 239 239 239 238 238 239 243 
246 247 247 247 246 246 247 247 248 248 248 248 248 248 248 248 248 248 248 248 
248 248 248 248 248 248 248 248 191 191 193 195 187 143 118 122 113 114 117 114 
122 121 123 116 115 115 125 125 126 128 138 147 149 148 149 147 147 160 174 179 
176 172 163 161 161 162 162 167 186 183 179 178 173 170 169 166 162 160 159 154 
151 151 151 148 148 148 149 149 160 170 169 163 164 163 163 167 173 175 179 183 
189 195 205 248 248 248 248 248 248 248 248 248 248 248 248 248 248 247 245 238 
227 226 226 213 225 221 220 231 237 243 245 243 237 239 244 246 247 248 248 248 
248 248 248 248 248 248 248 248 248 248 248 248 248 248 248 248 189 189 192 193 
175 131 114 114 118 113 116 118 119 120 117 114 114 113 116 117 126 141 151 153 
151 149 149 147 145 149 160 178 176 165 161 160 159 159 160 165 187 184 181 179 
175 171 169 168 166 164 161 158 154 152 150 150 148 148 147 151 151 169 185 164 
163 163 163 166 170 172 179 186 192 197 241 248 248 248 248 248 248 248 248 248 
248 248 248 248 248 247 244 235 225 225 211 210 180 157 157 182 216 228 230 229 
227 232 238 242 246 247 248 248 248 248 248 248 248 248 248 248 248 248 248 248 
248 248 248 248 188 188 189 192 163 140 119 118 113 114 114 115 116 113 116 113 
115 116 121 120 129 140 151 155 154 153 149 149 147 145 151 173 179 159 162 158 
157 158 160 165 184 182 180 177 175 172 170 170 170 166 164 158 156 153 150 150 
148 147 148 149 149 157 199 170 166 165 164 164 166 168 174 189 193 209 247 247 
247 246 246 246 247 247 248 248 248 248 247 247 247 244 241 230 220 209 209 207 
170 147 143 164 157 159 147 154 177 226 227 235 242 246 247 247 248 248 248 248 
248 248 248 248 248 248 248 248 248 248 248 248 188 186 187 190 162 130 118 118 
118 108 113 112 116 111 115 124 121 114 119 124 129 136 148 153 155 155 151 151 
148 143 147 164 171 161 161 156 156 158 160 167 181 180 179 177 178 176 172 172 
173 170 167 165 159 153 151 149 148 147 146 148 150 154 173 183 166 165 164 163 
164 167 175 188 198 240 242 241 240 240 240 240 243 245 247 247 247 246 245 244 
242 238 231 192 178 163 159 167 167 138 160 167 153 147 155 185 146 211 210 208 
236 241 244 246 246 247 247 248 248 248 248 248 248 248 248 248 248 248 248 248 
190 185 186 187 160 135 119 120 110 112 116 114 115 116 120 119 118 120 119 125 
127 133 142 151 154 155 152 151 149 145 147 158 157 162 157 156 155 157 160 171 
181 180 179 178 177 176 174 170 173 173 166 162 160 154 152 148 148 147 147 145 
150 153 166 218 165 164 163 163 163 169 185 195 216 221 219 217 217 216 214 213 
226 238 243 244 243 242 240 236 230 219 194 164 151 133 132 144 152 141 158 155 
156 143 157 168 155 181 209 195 194 230 235 239 242 243 244 246 247 247 247 248 
248 248 248 248 248 248 248 248 195 184 184 187 166 125 124 118 116 115 111 112 
122 122 121 126 119 118 126 124 129 129 145 149 152 153 152 151 151 149 148 153 
157 161 155 154 155 155 158 181 173 166 164 162 162 163 161 162 174 173 175 161 
155 153 151 150 149 148 149 146 148 151 159 216 162 161 162 162 165 182 196 211 
198 199 198 196 196 195 194 193 204 221 232 233 231 229 226 219 207 202 158 189 
136 131 123 123 125 138 141 146 149 143 148 151 166 152 171 168 162 188 201 222 
227 233 237 240 242 244 245 246 247 247 247 248 248 248 248 248 207 189 184 183 
167 125 124 112 116 117 114 120 117 123 121 116 119 112 115 120 123 134 137 153 
151 151 151 155 155 138 132 135 159 158 153 153 154 154 157 166 162 160 160 159 
159 159 159 159 163 163 170 169 159 161 150 148 151 149 151 148 153 150 159 202 
162 160 162 164 172 192 215 202 199 197 196 197 198 200 198 194 195 199 203 202 
201 201 203 200 200 173 165 162 142 121 135 119 123 132 128 127 128 132 139 141 
141 131 145 146 147 138 145 173 217 219 220 224 229 234 238 241 243 244 246 246 
247 247 248 248 207 201 185 183 169 125 116 109 113 114 117 122 124 119 123 164 
150 118 127 129 117 125 140 145 143 140 141 141 130 133 133 138 142 154 152 152 
152 153 155 157 158 156 156 156 157 156 158 157 158 158 160 161 160 154 150 147 
146 149 152 151 158 172 158 198 166 161 163 174 198 220 209 204 200 200 204 211 
212 208 205 197 196 196 196 197 196 196 195 195 191 145 146 133 125 122 145 142 
129 117 123 115 116 130 137 130 131 127 126 136 135 134 169 153 191 214 215 216 
217 220 222 227 231 236 239 242 244 246 247 248 207 205 196 183 180 131 113 108 
111 107 113 121 126 120 168 158 133 143 141 145 148 152 153 155 156 153 153 147 
144 143 142 158 152 153 151 151 151 152 154 154 155 154 154 154 154 156 157 156 
155 154 152 157 159 158 150 148 145 146 152 156 161 155 157 226 173 161 173 204 
215 212 207 206 219 215 225 230 233 230 215 197 197 197 197 196 196 196 195 194 
190 180 174 154 137 126 137 133 128 118 117 112 119 130 132 130 127 126 122 127 
130 130 138 148 147 207 214 214 214 215 216 217 219 221 224 228 237 244 247 248 
204 205 207 193 181 140 119 114 111 111 109 120 121 140 163 157 149 146 150 147 
147 151 155 156 156 153 147 137 129 133 116 153 158 152 150 150 150 150 152 152 
153 154 153 153 153 155 155 154 152 152 151 156 159 157 150 147 145 145 159 170 
172 159 157 171 163 174 185 184 185 186 187 188 189 190 191 203 204 206 213 220 
230 205 198 198 198 198 198 195 195 162 192 186 174 140 127 122 124 127 111 110 
114 123 131 130 125 123 119 120 126 126 125 126 139 192 214 214 214 215 214 215 
215 216 217 218 228 242 247 248 195 200 199 206 194 159 125 112 115 114 113 122 
124 135 157 161 141 144 154 153 147 150 155 157 154 155 151 145 141 142 139 139 
153 150 149 150 151 151 151 151 152 154 151 152 152 153 153 153 151 150 151 156 
156 154 148 147 144 146 156 173 169 158 153 179 183 182 183 184 185 187 189 190 
190 191 197 200 199 198 198 200 204 210 230 204 199 198 198 198 195 192 193 198 
195 169 139 121 120 127 122 111 123 126 133 131 122 116 116 119 124 124 127 131 
131 137 164 212 214 214 215 215 215 216 216 216 227 242 247 248 179 181 183 197 
199 196 128 113 110 109 112 123 134 151 153 150 142 120 159 157 151 149 154 156 
155 154 155 153 147 139 126 148 153 150 150 150 149 150 150 150 149 150 152 151 
152 151 151 152 150 149 149 149 150 148 147 146 144 146 155 170 164 156 157 178 
177 182 184 187 189 190 191 192 194 198 198 199 198 197 197 196 197 198 203 209 
221 199 199 198 196 194 197 208 209 182 151 124 117 117 132 112 120 120 124 122 
118 117 117 120 126 125 126 127 133 137 141 147 211 212 214 214 215 216 216 216 
227 242 247 248 174 174 181 198 204 205 143 110 104 108 109 119 141 148 137 154 
154 159 151 157 156 151 153 155 155 157 157 156 155 153 132 148 152 155 147 149 
149 148 149 149 147 147 149 151 149 150 149 150 149 148 148 148 147 147 146 143 
143 147 157 172 170 155 158 175 181 184 187 189 191 194 197 198 198 197 196 197 
197 196 195 195 195 196 196 196 199 229 199 198 197 197 203 206 200 182 162 136 
130 119 131 120 134 125 123 119 113 114 116 118 125 132 127 127 132 143 143 143 
167 212 213 213 214 215 215 215 227 242 247 248 208 180 188 202 210 206 165 116 
113 107 110 121 143 148 144 140 156 162 148 155 155 156 153 155 154 154 155 157 
157 154 147 152 152 156 156 153 154 149 147 146 145 145 147 149 147 148 148 148 
147 147 148 148 147 146 144 144 145 147 158 172 177 158 162 179 181 185 188 195 
198 199 198 199 197 197 196 196 195 194 195 194 194 194 195 193 194 195 230 199 
197 195 205 202 193 185 175 144 126 125 123 133 127 127 126 115 114 119 117 121 
123 134 127 126 135 145 141 151 161 212 215 215 214 214 215 214 226 242 246 248 
229 191 187 200 208 210 189 123 116 114 113 123 143 149 148 141 133 149 151 150 
153 151 153 154 155 152 151 152 152 153 139 151 148 151 156 154 152 152 149 144 
144 143 144 146 148 146 146 147 146 147 149 148 146 145 144 144 144 148 159 172 
173 155 169 180 182 186 189 198 199 199 198 198 198 197 198 197 195 196 195 195 
195 194 193 192 192 190 195 230 198 202 206 200 192 187 180 147 120 122 130 117 
124 127 124 117 117 117 117 127 127 135 128 124 128 132 145 155 163 211 213 213 
215 215 215 216 226 242 247 248 221 210 195 196 204 206 198 136 121 113 120 126 
145 149 148 148 146 146 146 148 148 149 150 153 153 153 148 141 143 149 150 146 
174 159 156 154 152 151 149 148 144 142 143 144 143 145 145 146 146 146 147 146 
145 145 143 144 146 147 158 173 154 161 173 180 182 186 189 193 198 199 198 198 
198 197 197 197 197 197 197 196 194 194 193 191 192 188 190 198 224 191 199 199 
191 186 178 163 152 129 123 114 119 127 121 114 116 116 119 131 134 133 129 121 
126 132 128 144 182 213 213 214 216 215 215 215 226 242 247 248 215 217 212 200 
199 198 198 163 130 118 119 135 149 151 149 147 148 149 149 149 147 146 147 147 
149 150 147 143 143 148 148 160 197 170 156 154 152 150 149 148 147 143 141 141 
142 142 143 144 144 144 145 144 143 142 142 142 144 145 156 161 154 166 178 181 
184 187 189 192 196 199 200 200 199 199 199 198 197 197 196 196 196 195 194 193 
192 191 187 192 195 163 140 155 179 182 174 160 147 134 122 128 133 125 122 115 
114 120 125 131 130 127 128 124 127 129 148 145 173 197 204 212 214 215 215 216 
226 242 246 248 211 218 211 199 187 188 200 187 143 134 136 147 152 151 150 149 
148 146 148 147 145 143 145 144 148 148 147 142 144 139 146 158 196 189 158 155 
152 151 149 148 147 144 140 140 140 140 141 142 142 142 143 142 142 141 140 141 
142 143 153 151 158 172 180 182 185 187 190 193 195 199 200 201 201 199 199 199 
198 197 197 197 196 195 196 194 194 191 188 185 187 174 155 181 170 173 171 164 
139 133 121 115 116 117 120 120 121 122 127 123 123 127 122 123 123 124 149 144 
167 171 196 210 213 216 215 215 226 242 246 248 209 211 211 201 182 191 207 183 
150 143 149 153 153 153 149 148 147 145 145 142 142 141 142 143 147 146 147 143 
143 132 138 191 195 193 169 156 154 151 150 148 147 146 143 140 139 138 138 139 
140 140 140 140 140 140 139 140 141 141 147 153 164 178 181 188 185 188 191 194 
196 199 201 201 202 201 201 199 199 199 198 197 196 196 195 194 193 193 190 186 
200 179 158 175 174 163 164 160 152 139 129 122 126 128 126 124 119 126 122 119 
120 121 116 118 125 129 153 138 152 165 193 205 209 216 217 216 226 241 246 248 
211 213 219 209 200 204 212 177 153 150 151 154 154 152 149 148 146 144 142 139 
139 138 139 139 141 143 144 147 142 143 147 188 193 192 189 159 155 152 150 148 
147 146 145 142 142 140 138 137 138 138 139 139 137 137 139 138 139 141 150 160 
176 179 182 191 186 188 191 193 197 199 201 202 203 203 202 199 199 199 198 197 
197 196 196 194 193 191 191 204 189 177 151 136 157 166 161 165 156 147 140 129 
122 129 112 115 135 132 125 120 121 115 117 122 124 141 158 149 177 181 194 207 
210 220 220 220 226 241 247 248 209 218 219 216 206 213 234 177 158 151 155 154 
153 151 148 147 146 143 139 136 135 134 135 135 137 139 141 143 139 144 148 187 
184 182 189 177 158 154 151 149 147 145 143 143 141 139 136 135 137 136 137 136 
136 136 135 136 138 146 157 173 178 180 184 189 187 188 190 193 198 201 201 203 
204 204 203 201 201 199 198 198 198 196 196 195 194 204 198 184 187 197 178 171 
167 167 162 164 155 146 133 127 119 128 112 119 130 126 128 124 116 115 123 120 
128 137 145 155 171 178 199 209 211 213 217 216 225 242 246 248 207 210 216 210 
206 170 240 239 180 158 158 156 152 149 147 147 145 143 141 137 134 133 132 133 
133 137 140 142 138 139 165 191 189 186 181 181 168 156 152 149 147 146 143 142 
140 136 135 134 134 135 135 133 134 134 134 135 139 155 172 176 178 181 183 185 
187 189 192 194 200 202 203 203 204 203 203 202 200 199 199 198 198 197 196 195 
194 194 189 178 185 208 208 196 187 174 162 157 151 136 127 120 119 123 114 120 
121 123 125 120 115 117 125 125 126 135 136 157 152 175 199 199 205 222 222 222 
225 242 246 248 207 208 208 207 190 149 170 235 234 214 159 156 152 149 146 145 
145 142 141 137 134 133 133 134 133 135 138 139 138 140 191 193 191 190 187 182 
176 164 154 151 148 146 145 141 140 135 133 133 133 133 132 132 133 133 132 135 
144 145 149 148 155 162 172 181 186 188 190 195 198 198 199 199 201 206 204 201 
199 198 197 197 198 198 197 195 195 161 172 176 170 209 200 186 180 169 155 153 
151 137 121 128 121 113 115 119 116 120 122 119 116 121 125 124 126 139 142 152 
172 186 197 208 212 219 224 226 225 241 246 248 205 215 211 206 164 143 127 200 
233 232 230 165 155 150 148 146 142 142 140 135 132 130 132 133 133 134 135 135 
137 139 151 194 192 192 189 187 182 174 166 155 151 148 146 144 142 138 133 133 
133 131 130 130 134 142 142 143 144 144 146 146 147 148 152 152 159 175 188 193 
194 195 197 198 200 203 205 203 199 198 198 198 198 199 198 197 197 196 167 156 
170 195 189 177 170 163 148 144 144 135 123 117 120 124 124 123 127 121 118 114 
115 116 119 127 131 136 139 139 156 179 181 204 214 222 225 224 228 240 246 248 
203 216 220 184 141 128 131 125 217 230 229 228 187 150 148 142 140 140 137 133 
130 128 128 131 132 132 133 133 136 138 142 195 194 192 192 189 187 182 174 170 
163 154 152 150 147 141 136 134 133 131 134 146 144 144 145 146 147 148 148 149 
149 162 169 165 167 179 184 178 193 196 196 197 199 199 199 199 198 198 197 198 
199 199 198 199 198 180 185 182 181 183 177 169 164 156 142 141 145 140 128 123 
137 127 128 126 124 125 118 115 114 115 119 122 135 132 139 133 146 177 180 180 
202 218 221 224 230 241 246 248 187 199 188 153 140 131 125 122 130 227 229 229 
225 213 149 142 141 140 136 133 130 128 127 128 129 129 131 130 132 137 182 193 
194 193 193 191 188 186 181 172 165 173 166 148 141 139 135 132 129 142 146 145 
146 147 148 149 150 149 150 153 161 162 163 161 161 163 166 177 175 186 195 197 
197 199 198 198 198 197 197 197 198 198 199 198 199 182 155 152 180 175 171 163 
161 154 144 143 145 133 129 136 139 127 125 128 120 118 115 115 113 117 121 126 
137 129 143 141 151 165 179 186 188 220 214 221 227 241 246 247 155 137 128 125 
126 126 122 122 119 165 226 225 225 222 220 149 143 141 136 134 132 128 128 127 
130 134 146 172 194 199 198 197 195 195 193 192 191 187 185 179 169 162 177 178 
174 161 157 155 146 147 147 149 149 150 153 155 155 159 161 160 156 153 152 153 
155 154 158 160 165 170 181 195 196 197 197 197 197 196 196 197 197 198 198 198 
198 217 203 183 164 166 171 162 166 157 144 149 140 132 132 127 123 129 117 118 
116 118 114 117 117 117 127 127 133 137 150 133 141 169 190 194 209 224 221 220 
224 241 246 248 142 131 123 127 119 120 119 118 115 114 208 225 223 222 220 218 
155 136 137 136 134 136 204 207 207 206 204 202 200 199 198 197 196 195 194 193 
192 189 187 183 178 162 169 185 173 150 153 148 149 149 150 151 153 157 164 166 
163 161 160 156 153 150 148 148 147 148 148 152 156 160 170 179 195 196 196 197 
198 197 196 196 198 198 197 197 196 190 190 179 172 184 171 167 170 158 144 142 
139 127 129 128 134 121 120 119 113 115 114 116 117 122 126 130 133 152 139 130 
145 159 188 199 202 222 219 221 225 241 246 247 134 128 120 121 120 118 115 115 
115 113 123 219 221 220 219 217 216 160 137 136 134 203 207 206 207 207 205 203 
201 199 198 198 197 196 195 194 193 191 188 186 184 178 188 176 180 167 151 152 
150 151 155 157 158 171 168 166 164 161 159 156 156 150 148 148 147 146 145 146 
148 152 155 163 183 195 196 195 196 196 196 197 197 197 198 198 183 160 166 173 
183 184 170 171 166 155 144 139 134 128 126 131 137 129 119 120 116 115 115 112 
123 127 130 132 136 147 126 130 149 172 182 190 216 222 215 216 223 238 244 246 
132 126 120 119 119 109 115 114 113 114 113 171 218 219 219 216 216 213 159 138 
205 207 207 205 205 207 207 206 203 200 199 198 197 196 195 194 193 192 190 188 
189 185 172 164 184 172 167 159 161 162 161 160 162 169 165 164 163 160 158 156 
154 152 149 148 148 144 143 144 142 147 148 157 165 190 194 195 195 195 196 196 
195 196 197 196 195 174 179 180 180 176 170 168 161 151 143 139 134 129 129 136 
132 121 122 120 119 123 116 118 128 133 130 131 133 122 119 130 151 182 197 207 
211 214 223 225 222 233 241 244 129 123 119 115 116 115 113 112 112 112 111 114 
215 219 217 216 214 214 209 157 207 207 207 206 206 207 207 206 204 201 199 198 
197 196 196 195 194 193 191 192 191 190 181 154 176 163 161 160 163 161 159 160 
174 170 165 162 161 160 157 155 154 152 149 146 144 143 141 141 140 143 147 144 
153 176 193 194 194 195 195 195 195 195 194 195 196 196 187 178 179 171 169 165 
158 149 143 138 137 128 124 117 122 114 117 119 113 114 114 125 129 128 125 124 
124 121 119 134 162 181 197 197 210 217 230 226 222 229 236 240 126 121 119 116 
117 116 106 112 112 112 111 111 175 216 213 212 214 215 215 207 208 208 207 206 
206 209 208 206 203 202 199 198 198 197 196 195 195 193 192 189 190 191 183 156 
167 163 163 159 158 158 160 178 173 166 162 161 160 158 157 156 154 152 150 148 
145 144 141 140 140 140 143 142 148 165 193 192 194 195 195 194 193 194 194 193 
186 187 181 180 173 170 167 160 152 146 141 133 140 136 125 122 122 114 116 121 
111 116 114 121 129 123 121 122 125 124 120 146 181 195 200 206 211 219 225 225 
219 226 230 234 120 118 115 114 114 114 112 109 109 110 110 110 113 218 219 218 
219 220 218 205 203 207 206 206 207 210 210 208 206 204 200 199 198 196 196 195 
195 194 193 189 187 189 186 175 165 167 162 158 156 160 180 177 168 154 153 158 
158 157 156 156 155 151 150 148 145 144 141 141 140 141 141 145 143 150 190 192 
194 193 194 192 193 192 192 191 181 170 171 165 163 163 159 153 144 139 134 132 
133 139 130 125 116 118 125 116 106 115 117 121 121 123 124 128 129 121 120 148 
181 200 215 220 223 218 231 220 222 225 230 231 118 114 114 115 112 114 112 105 
108 109 108 111 108 177 220 221 221 221 219 192 170 205 206 206 206 208 209 207 
206 203 201 199 198 198 196 195 196 194 193 190 188 185 188 171 169 167 161 157 
156 157 173 173 156 150 150 153 157 157 156 156 156 152 150 149 148 145 143 143 
142 142 140 141 143 145 175 200 192 191 190 191 190 190 190 189 190 175 149 149 
150 150 143 137 132 131 131 135 133 134 133 123 113 115 123 109 114 118 120 124 
127 123 128 126 132 114 121 142 173 191 203 215 228 230 236 224 227 222 223 226 
113 114 113 111 111 111 111 105 108 107 108 109 107 116 205 218 220 220 220 151 
160 201 204 204 205 205 206 205 205 204 203 200 199 198 197 196 196 195 194 191 
189 185 180 177 176 162 159 158 157 158 174 169 154 151 150 158 160 158 158 156 
157 155 152 150 148 146 145 144 143 143 141 139 142 146 172 210 190 190 189 189 
189 188 188 188 189 196 208 206 176 148 137 135 133 131 130 131 133 136 136 131 
117 117 113 110 118 117 122 126 127 125 129 129 132 114 117 129 146 181 204 201 
211 214 230 222 222 214 215 218 108 110 110 111 111 110 112 105 108 105 108 109 
106 108 187 199 217 217 205 144 146 146 201 202 203 202 202 204 204 204 204 203 
199 199 197 196 196 196 195 191 189 185 176 179 172 162 159 154 152 163 174 164 
153 151 154 161 160 158 158 158 158 157 154 151 149 148 146 145 142 144 141 140 
145 148 169 227 187 187 187 188 187 186 186 186 188 201 212 213 194 191 192 193 
195 204 149 137 137 137 135 130 122 119 109 113 117 113 120 133 130 122 132 132 
119 116 119 131 151 188 205 202 211 223 229 227 212 214 210 210 108 110 108 110 
110 110 110 108 105 107 105 106 105 106 123 211 199 216 189 163 125 138 197 201 
201 201 201 202 203 204 203 203 199 198 197 196 196 197 196 193 189 186 174 178 
167 159 155 151 149 161 156 154 153 151 151 153 152 150 151 151 158 159 160 156 
154 151 146 144 141 135 140 139 143 151 165 225 190 186 186 186 185 184 185 186 
195 212 213 197 197 194 192 193 195 203 207 147 146 141 140 130 117 106 115 120 
121 115 125 129 126 125 128 121 122 124 130 138 159 180 197 205 221 224 232 226 
210 210 209 208 113 113 109 109 109 109 109 109 99 109 107 107 106 107 108 199 
210 205 191 181 123 148 163 199 200 200 201 201 201 201 200 199 199 198 196 196 
197 196 196 194 190 187 173 175 162 155 152 143 143 144 144 147 152 150 152 153 
153 152 150 149 156 157 158 162 154 151 147 145 143 141 138 137 143 169 165 237 
199 184 184 184 182 183 185 192 213 212 173 188 195 193 192 194 198 203 205 195 
147 147 138 125 114 117 122 127 121 122 115 116 119 120 114 123 128 136 138 157 
180 196 218 216 227 228 230 216 208 209 211 210 111 110 107 109 109 109 109 110 
100 102 107 108 106 109 108 141 212 210 198 184 125 123 141 199 199 199 199 199 
199 199 199 199 198 197 197 196 197 197 196 194 191 187 172 166 158 152 149 141 
141 141 141 144 146 148 149 151 153 152 150 150 153 152 153 156 155 154 149 145 
144 143 140 138 148 165 175 241 207 183 183 181 182 184 195 215 209 179 168 183 
194 194 192 193 198 201 201 198 145 142 127 125 123 118 126 123 119 117 104 104 
108 110 116 128 134 145 145 161 180 196 226 216 225 234 234 217 214 213 212 212 
112 111 108 107 108 109 108 109 108 96 96 107 106 108 108 109 209 208 193 180 
128 138 153 198 198 199 199 199 199 199 199 198 197 197 196 196 196 197 196 194 
191 187 171 164 156 150 145 138 139 139 139 141 143 144 149 151 152 154 153 151 
154 153 152 153 155 154 154 146 144 143 140 138 140 154 179 248 209 183 183 184 
188 210 212 195 180 185 188 193 196 194 191 176 168 161 154 136 144 135 122 128 
126 121 121 119 113 113 109 113 118 117 118 126 131 134 150 173 178 197 224 219 
219 233 221 224 214 220 212 212 111 112 113 111 110 110 108 107 109 108 95 96 
106 107 105 107 183 209 203 179 142 151 157 197 197 198 198 198 198 198 198 198 
197 197 197 197 197 197 195 193 191 187 171 162 154 148 140 133 134 136 138 139 
141 141 146 153 154 152 151 152 152 151 151 154 157 155 154 148 145 142 139 139 
142 150 179 245 198 184 189 206 211 192 189 188 175 185 197 199 192 153 145 155 
154 155 137 109 124 133 129 128 126 117 118 112 110 113 122 116 123 117 128 121 
126 141 140 162 154 173 201 205 213 224 227 225 219 219 212 212 112 109 107 109 
108 108 108 109 110 108 107 95 107 104 105 107 127 208 204 184 155 145 156 193 
197 197 197 197 197 198 197 197 196 198 196 196 196 196 195 192 190 186 172 162 
154 149 138 131 133 136 136 138 140 140 143 149 152 153 153 153 152 151 150 153 
155 153 151 148 145 142 140 142 142 149 177 209 211 209 202 199 191 183 189 195 
184 193 199 183 138 128 148 160 150 151 113 109 121 132 129 129 115 115 119 113 
102 125 119 122 125 125 119 113 120 136 145 148 139 166 191 223 222 222 234 232 
219 209 212 212 110 109 108 107 106 107 107 107 107 108 107 97 107 106 105 107 
107 203 204 189 153 151 142 182 195 196 197 197 197 197 197 196 197 197 196 197 
197 195 194 192 192 198 180 163 155 149 138 134 134 135 136 137 138 139 140 144 
150 152 153 153 153 152 153 152 151 152 149 145 144 142 140 140 140 147 178 205 
205 195 199 205 198 191 198 196 194 198 183 147 147 139 154 146 157 119 109 105 
128 141 122 128 108 106 100 100 101 103 103 110 117 117 109 112 117 124 133 156 
147 148 169 203 216 218 225 232 219 208 206 207 108 107 109 111 107 108 108 109 
107 107 106 96 106 105 104 105 106 161 205 198 147 147 149 157 195 196 196 196 
196 196 196 196 197 197 196 196 196 195 204 212 209 190 180 165 155 147 138 134 
133 133 136 137 137 139 139 139 144 151 152 152 151 152 153 152 151 153 152 146 
145 143 140 139 139 146 193 203 208 192 192 192 188 191 191 188 187 175 148 143 
137 138 149 161 127 111 105 108 146 153 128 114 111 107 108 103 112 111 105 111 
112 107 115 127 135 140 141 144 152 178 161 193 214 212 225 234 209 197 196 197 
109 111 113 111 108 105 107 108 108 108 104 100 105 105 105 104 105 113 206 206 
154 150 152 151 194 195 195 196 196 196 197 197 198 196 197 197 196 198 208 203 
196 186 147 167 156 144 137 133 135 135 134 134 134 136 137 138 140 143 148 150 
151 152 153 150 150 150 148 145 143 142 141 139 139 154 188 212 208 170 164 167 
171 174 175 174 172 146 148 139 132 151 154 138 113 108 104 127 164 157 124 127 
116 114 114 109 107 105 107 111 110 123 138 145 147 148 149 147 148 153 212 210 
226 215 220 235 215 189 183 180 111 111 111 108 105 103 106 107 108 107 102 101 
107 104 105 104 105 106 193 211 156 155 138 149 171 195 195 196 195 195 197 196 
196 197 197 197 196 198 201 199 186 146 138 172 152 148 137 134 135 137 133 133 
135 134 136 136 138 139 143 147 149 150 150 149 147 146 144 143 143 141 140 139 
140 163 198 212 197 172 170 171 172 173 174 171 137 147 143 134 133 146 151 118 
112 102 102 151 174 149 138 134 127 129 129 121 107 100 99 111 135 146 151 152 
153 153 151 150 149 149 165 224 239 225 220 236 225 181 187 174 104 105 109 107 
105 102 105 106 107 108 105 88 106 105 107 104 104 105 139 212 172 141 152 139 
134 195 195 195 197 197 197 197 198 198 197 196 199 200 192 185 143 135 137 141 
165 148 134 134 132 134 135 133 134 134 135 136 136 139 138 142 148 149 148 147 
145 145 143 143 142 140 139 138 139 180 211 204 183 178 179 179 180 180 179 169 
133 146 139 134 143 125 141 117 104 94 115 163 156 152 149 146 139 144 143 131 
133 129 136 144 151 153 154 155 155 151 148 146 146 147 146 182 232 226 229 232 
205 184 181 178 110 110 109 104 103 101 103 105 106 108 105 96 101 106 106 106 
104 105 107 210 188 127 125 129 132 192 195 195 196 196 197 198 198 198 198 196 
190 187 184 214 132 136 137 130 127 126 128 130 133 136 138 137 133 134 136 135 
134 137 138 138 142 146 146 144 143 143 142 141 141 138 138 137 143 195 205 201 
191 182 180 181 181 181 177 145 139 142 134 130 152 133 121 110 93 99 128 157 
159 153 150 149 151 153 146 138 142 145 148 153 156 155 156 154 147 146 146 143 
145 143 145 145 236 223 225 217 184 181 179 179 116 111 105 103 100 98 103 107 
106 108 106 103 92 105 107 106 104 104 104 186 202 126 121 117 129 164 194 194 
195 195 196 196 196 194 190 189 184 202 213 209 133 137 137 132 138 120 123 127 
129 136 141 140 136 136 134 134 134 135 137 137 141 142 149 142 142 141 141 140 
139 137 137 137 165 207 206 207 199 183 178 180 180 180 139 140 145 133 125 128 
139 123 123 104 94 122 171 130 134 156 152 157 158 155 134 146 149 153 156 156 
158 157 152 143 142 146 144 143 143 143 146 147 192 205 202 186 186 186 184 184 
108 105 106 103 97 95 101 104 106 108 107 106 94 105 107 105 104 104 104 132 
209 134 123 124 149 119 192 191 192 192 192 191 190 188 185 189 207 210 218 201 
125 136 135 132 147 137 119 122 126 136 145 142 141 138 136 136 135 136 137 135 
136 137 137 140 140 141 140 140 138 136 137 149 220 217 209 200 185 173 173 174 
173 170 130 126 132 121 122 128 139 123 116 107 101 135 162 142 138 143 159 159 
160 117 136 153 154 159 157 159 159 153 137 141 139 147 145 144 144 143 145 147 
161 209 187 191 191 190 191 194 99 103 106 104 102 95 100 102 106 106 106 106 
102 93 105 105 105 104 104 107 208 159 148 134 150 105 187 188 190 189 187 186 
184 191 205 207 208 214 172 100 96 105 133 133 152 105 112 119 124 134 144 145 
142 142 138 138 137 136 136 135 135 134 135 138 142 145 140 139 134 133 141 209 
226 228 211 196 178 175 176 176 154 135 130 122 128 123 124 142 149 122 115 110 
119 141 140 144 156 149 137 159 133 121 144 156 159 158 159 158 156 139 128 146 
137 149 146 143 144 142 145 147 148 166 204 199 200 199 200 203 107 106 106 103 
99 94 98 101 104 106 106 107 105 90 104 105 104 105 104 103 191 183 157 138 
137 110 172 197 198 202 201 202 202 204 206 207 206 122 98 96 94 91 107 137 
154 140 120 164 125 128 140 143 145 142 142 137 137 135 134 132 133 134 137 139 
141 143 143 133 131 136 202 205 221 220 217 199 192 183 159 132 125 130 126 121 
128 124 130 139 151 134 119 113 136 149 156 153 147 143 141 136 123 130 153 160 
157 157 156 158 146 131 126 147 138 149 147 145 143 142 144 144 145 182 182 201 
201 201 203 207 112 112 101 99 95 93 94 100 104 106 106 107 106 99 96 104 
105 105 103 103 145 186 150 153 140 120 127 199 200 200 200 201 203 205 207 168 
105 97 96 94 93 92 90 127 144 150 160 189 201 169 153 147 138 139 138 138 
133 132 130 130 134 136 137 141 143 146 131 130 135 196 200 198 203 213 212 205 
162 135 123 123 126 126 122 122 122 124 148 141 152 146 126 118 127 144 142 138 
137 141 147 148 145 143 160 155 155 156 156 152 137 130 125 145 142 150 148 144 
142 141 145 143 144 149 148 202 199 199 201 205 116 107 101 101 91 90 93 97 
103 105 105 107 106 102 89 104 105 104 103 103 112 191 140 154 151 121 104 199 
199 199 201 202 204 198 120 102 100 97 95 94 93 91 90 100 142 153 162 177 
202 209 196 184 163 144 139 137 135 130 129 130 143 143 145 147 148 127 126 126 
135 123 127 201 207 195 131 129 123 120 121 122 121 124 120 122 121 124 143 145 
154 149 139 124 107 121 133 135 142 147 149 151 152 160 153 154 155 153 153 142 
137 130 123 143 145 151 148 145 141 140 145 143 143 146 193 202 196 197 199 203 
113 103 100 97 88 91 94 96 102 105 105 106 105 105 92 101 105 104 103 103 
103 197 137 141 153 147 101 186 199 200 201 204 163 110 101 99 99 96 94 93 
92 90 89 89 131 146 183 190 198 200 197 211 209 197 182 163 155 143 141 146 
153 157 155 128 121 116 113 108 107 112 122 198 200 134 121 117 117 120 122 121 
122 122 117 125 121 139 140 149 155 149 143 123 106 118 133 146 150 150 152 157 
159 152 150 153 154 153 149 133 135 131 120 145 147 150 149 145 137 137 141 143 
143 146 161 157 193 194 196 199 107 101 98 97 86 90 92 96 102 105 105 106 
105 105 100 87 104 105 103 103 102 181 135 132 147 147 99 149 200 202 207 154 
115 107 100 97 96 95 94 92 91 90 90 90 99 163 205 199 189 202 209 209 
210 203 211 212 134 158 168 163 141 113 110 109 110 111 110 107 110 113 118 119 
124 115 114 117 115 117 120 122 123 118 117 122 119 155 140 152 152 150 144 122 
117 132 149 153 152 158 160 154 150 147 148 154 154 147 139 132 132 132 118 145 
150 149 147 142 137 138 136 144 137 144 145 193 200 188 190 192 103 99 98 94 
86 86 87 92 99 104 104 105 105 106 103 88 102 103 103 103 103 142 147 116 
113 113 96 113 208 188 148 138 104 95 95 95 94 93 91 93 93 91 91 91 
94 221 227 200 196 196 197 201 218 207 221 187 106 106 105 105 106 105 110 110 
110 112 108 110 112 113 112 109 113 116 109 119 110 115 117 124 122 113 117 122 
147 150 144 155 151 151 154 115 128 151 158 162 158 153 149 146 147 146 150 155 
150 143 137 132 129 134 119 146 148 147 148 143 140 139 137 138 141 142 146 185 
190 182 184 184 100 97 98 90 86 85 86 91 98 104 104 105 104 104 104 95 
89 103 103 103 103 113 165 124 111 113 94 101 113 102 123 128 93 93 94 94 
93 94 93 93 94 92 92 93 94 203 212 195 182 191 196 204 214 206 220 184 
104 105 105 105 106 105 106 107 110 112 108 111 111 111 114 111 113 115 113 109 
121 113 114 116 116 111 116 134 157 152 149 153 150 148 155 116 158 160 159 153 
150 149 147 147 147 149 154 156 145 138 134 133 129 133 122 146 146 149 147 143 
142 139 138 135 143 140 145 144 165 181 181 183 98 99 99 88 86 85 86 90 
97 101 103 105 104 105 104 100 84 103 103 102 102 103 170 121 116 113 95 100 
108 99 112 109 92 92 92 92 94 95 94 96 95 92 91 94 96 159 204 179 
180 190 193 208 203 208 223 162 100 98 103 104 105 108 111 110 112 112 110 112 
110 109 114 115 114 114 113 110 114 120 117 110 108 110 115 159 153 151 152 154 
153 155 149 130 159 154 153 151 151 152 152 153 154 156 159 153 139 136 133 133 
128 129 126 146 147 149 146 143 143 138 139 135 143 142 145 143 191 191 181 182 
98 99 100 84 86 86 86 92 96 101 101 105 105 105 104 103 89 92 104 103 
105 102 156 119 117 113 103 96 104 98 102 104 95 89 91 94 95 94 95 97 
95 93 94 96 97 119 182 173 186 200 198 197 203 205 207 207 204 160 103 95 
101 108 108 109 112 114 112 112 111 108 118 101 111 112 113 113 108 117 121 120 
113 110 153 156 151 150 150 148 153 158 124 145 153 151 153 153 155 157 159 161 
160 160 156 143 135 134 133 133 127 126 129 141 149 148 146 143 144 138 140 136 
135 145 145 148 155 207 212 217 99 99 94 84 86 85 87 91 97 100 102 103 
102 106 105 102 94 82 104 104 104 102 110 125 119 128 122 95 102 97 95 94 
92 88 91 93 94 95 100 96 94 94 96 96 97 107 180 178 188 196 196 204 
214 203 197 192 209 197 186 141 97 101 109 110 112 111 114 113 112 107 117 109 
102 110 111 113 113 108 116 120 120 123 158 151 150 149 148 153 153 157 111 152 
151 159 156 156 160 161 160 156 155 151 142 133 132 132 133 131 126 124 134 140 
146 147 146 143 143 139 140 136 134 144 146 148 141 211 222 226 100 97 92 84 
85 85 88 92 97 100 100 103 103 106 104 103 97 83 93 104 103 103 108 142 
144 137 129 93 100 103 93 93 94 89 91 94 94 100 97 94 93 96 99 97 
103 112 175 180 183 185 190 197 214 205 207 198 208 187 182 198 185 99 101 113 
113 112 107 113 114 109 114 120 112 112 112 110 114 113 109 117 120 142 150 150 
150 149 154 153 159 112 148 157 154 159 158 162 160 152 144 140 136 132 128 128 
130 133 134 132 126 122 129 142 144 146 146 143 143 141 140 138 137 137 146 146 
141 204 215 220 99 96 88 84 85 84 87 92 96 98 99 102 104 103 103 103 
101 87 81 103 104 104 107 156 139 142 136 91 99 114 94 96 91 91 91 95 
95 102 95 94 95 99 97 103 104 113 163 171 181 186 190 214 209 209 214 204 
186 176 182 188 189 130 96 105 114 112 111 107 114 113 112 119 119 117 117 116 
114 117 114 109 111 150 149 149 149 151 154 155 133 142 159 158 159 158 161 155 
145 134 129 126 123 121 123 127 130 133 133 131 127 121 127 141 142 146 146 143 
143 142 141 139 138 136 145 145 148 156 195 196 96 94 86 84 84 86 88 93 
97 99 100 102 98 100 102 103 101 90 81 97 105 102 103 163 149 141 145 90 
97 121 96 97 89 93 92 94 103 99 94 95 96 103 102 104 130 167 164 167 
178 185 211 188 203 194 214 200 171 177 183 190 187 188 104 97 106 112 113 107 
117 117 113 116 118 119 120 119 118 118 118 118 112 150 150 148 149 152 152 150 
138 158 159 161 159 157 152 142 139 135 137 136 136 134 132 132 133 133 132 131 
128 123 121 141 142 147 146 144 143 143 142 139 138 137 140 144 162 145 191 173 
94 94 86 84 84 85 89 93 95 98 99 96 97 103 104 104 103 93 83 84 
103 102 103 144 142 130 132 88 95 110 97 97 90 92 94 98 103 96 94 97 
102 100 121 185 196 183 174 172 174 207 200 182 182 174 202 188 165 171 201 200 
186 186 172 109 99 101 113 112 104 116 118 116 116 118 118 118 120 120 123 119 
114 149 149 148 149 150 149 124 154 156 157 158 156 153 148 145 143 144 144 141 
140 138 136 136 136 134 131 129 127 125 116 141 146 148 145 145 142 144 143 140 
138 137 136 144 166 146 196 181 95 94 86 83 85 86 90 94 96 97 96 95 
98 104 102 102 102 95 84 81 100 104 101 134 142 131 135 88 92 103 116 94 
92 93 95 110 96 95 97 103 110 152 172 186 185 181 173 178 200 211 180 203 
199 204 182 168 164 197 227 226 188 183 184 207 205 117 95 113 111 101 117 117 
117 116 119 121 119 116 113 111 116 150 149 149 150 149 149 137 151 152 154 155 
151 149 145 144 143 143 140 140 139 138 137 138 136 131 130 126 123 127 116 139 
145 147 146 145 142 144 142 141 138 137 137 142 155 146 182 206 94 96 86 84 
85 87 90 92 94 95 97 97 100 101 101 102 102 97 87 81 87 103 104 118 
137 139 136 89 91 100 137 93 93 94 108 97 95 97 105 147 173 167 165 168 
169 176 177 189 211 175 170 201 163 162 212 162 172 190 224 213 177 182 178 213 
220 203 191 151 122 126 110 102 111 118 114 112 112 112 112 111 125 150 149 150 
151 150 131 150 152 152 156 151 145 140 141 141 141 142 140 139 138 136 135 134 
133 129 128 124 123 125 121 136 144 147 146 145 142 142 141 143 138 137 138 137 
144 153 163 221 93 96 86 84 85 87 90 93 95 95 97 96 99 102 103 102 
103 98 89 83 81 102 104 110 139 149 144 93 89 97 131 95 94 101 103 96 
99 132 181 183 168 159 170 173 175 181 192 199 179 169 168 189 157 156 201 157 
168 170 173 164 173 181 174 200 213 201 191 185 183 182 175 156 131 113 106 111 
120 124 129 126 145 148 149 150 150 151 125 151 155 155 150 142 137 137 137 139 
140 138 138 138 137 135 133 132 131 128 127 124 124 121 119 128 141 146 146 146 
143 141 143 142 139 138 137 135 141 189 161 222 95 98 85 85 86 88 90 93 
94 94 95 95 99 100 101 101 100 98 89 84 81 91 106 108 139 156 161 97 
88 97 116 119 97 110 96 116 196 191 179 174 165 160 171 180 180 201 188 206 
165 170 180 157 158 167 168 158 159 158 156 157 170 175 173 190 199 195 182 177 
181 186 200 199 218 226 219 212 213 202 214 225 163 148 149 150 149 141 146 154 
153 149 139 134 133 137 137 141 141 139 137 136 136 133 132 131 131 129 128 127 
125 122 116 117 141 144 144 145 144 141 143 142 142 139 139 137 138 190 167 223 
95 98 84 86 87 88 92 92 94 95 98 97 98 100 100 102 101 99 93 86 
82 82 106 111 138 161 171 110 87 96 106 148 119 102 160 188 186 181 166 164 
163 167 182 193 210 186 175 195 176 171 165 158 161 211 160 158 159 165 174 172 
159 158 166 191 193 180 176 178 178 181 188 196 216 229 214 211 224 212 202 211 
149 149 149 149 148 118 151 150 142 136 134 133 137 140 143 141 139 137 132 133 
133 132 131 132 130 129 128 127 125 122 117 112 141 142 143 146 144 141 142 142 
143 138 139 138 134 154 196 220 94 99 83 85 87 88 91 93 94 95 96 95 
96 99 101 101 101 100 92 87 84 81 102 116 131 168 176 120 87 93 102 150 
146 171 182 188 186 192 177 154 164 174 183 197 183 174 184 199 179 199 161 161 
169 196 162 159 160 167 176 170 153 151 161 183 190 172 170 169 168 163 170 170 
196 212 210 209 219 210 185 211 152 149 149 147 148 136 148 140 132 132 134 138 
144 144 146 139 135 129 127 131 129 127 131 131 130 129 128 124 124 122 119 112 
138 142 142 146 144 142 142 142 143 137 139 138 134 139 230 191 101 97 83 85 
87 90 91 93 94 95 95 96 99 100 101 101 100 100 93 89 85 82 87 120 
132 168 179 127 87 92 99 137 190 194 198 203 206 203 189 158 168 180 181 176 
173 181 209 215 210 169 164 176 208 202 163 164 165 167 167 154 153 151 154 167 
171 173 172 170 164 168 176 183 190 204 208 210 205 201 200 207 157 151 147 142 
136 147 144 137 137 140 142 144 148 144 144 135 129 125 125 128 125 125 129 130 
128 128 126 122 125 121 117 112 133 140 139 145 144 142 141 142 142 137 137 140 
135 135 216 184 102 91 83 85 87 90 91 92 95 97 98 98 100 100 100 102 
100 99 94 90 87 84 82 117 137 171 180 136 86 90 98 116 188 206 197 196 
198 193 175 164 176 190 202 187 177 197 213 222 209 181 170 190 204 208 164 176 
180 186 196 180 157 157 161 165 166 170 175 176 178 190 196 197 201 201 213 213 
212 217 221 172 156 150 146 143 125 147 145 142 146 147 148 147 148 143 137 129 
125 122 124 122 122 124 128 125 126 130 123 121 120 112 108 105 127 138 140 142 
146 142 142 142 140 139 135 140 137 134 166 201 102 86 85 86 88 90 90 93 
94 97 97 96 98 98 99 101 100 98 94 91 89 85 82 100 140 170 184 142 
86 90 97 104 156 194 181 176 178 170 161 172 183 200 203 198 187 197 206 209 
198 192 186 208 201 203 190 199 205 215 221 217 206 210 214 216 218 221 223 225 
229 233 235 236 239 242 243 245 246 247 248 155 147 147 143 142 136 143 143 144 
147 145 144 150 143 141 130 125 122 123 121 121 123 127 128 126 129 127 120 121 
119 116 113 113 124 136 135 138 146 143 142 142 141 142 135 139 138 135 140 221 
102 84 85 87 88 90 91 92 93 94 94 95 95 98 101 100 99 98 95 92 
91 87 83 85 140 171 184 158 86 88 95 103 142 191 190 192 195 197 199 205 
211 213 216 213 217 219 225 225 226 228 230 233 234 237 239 242 244 245 246 247 
247 248 248 248 248 247 247 247 247 247 247 247 247 247 247 247 247 247 247 151 
141 146 140 137 133 131 130 129 136 136 137 149 137 132 125 121 122 125 127 128 
128 129 129 127 130 125 121 123 121 120 122 126 125 133 133 134 146 143 142 142 
141 144 135 138 140 136 136 227 102 84 86 87 89 92 92 93 94 95 94 94 
97 99 101 100 99 98 95 93 92 89 85 83 124 166 178 170 85 88 94 100 
125 227 239 241 243 244 246 246 247 247 248 248 248 247 247 247 247 247 247 247 
248 247 247 247 247 247 247 247 247 247 247 247 247 247 247 247 247 247 247 248 
248 248 247 246 245 243 241 139 134 143 134 129 104 110 112 113 118 126 138 144 
129 124 121 123 125 128 133 129 130 131 130 128 129 124 123 126 123 128 134 126 
118 130 128 127 143 144 143 141 141 146 135 136 138 138 136 193 99 86 88 89 
90 91 92 93 93 95 95 97 98 100 100 100 101 99 97 94 92 90 87 83 
100 165 177 177 85 88 92 100 115 220 247 247 247 247 247 247 247 247 247 247 
247 247 247 247 247 247 247 248 248 248 248 247 248 247 246 245 243 239 236 233 
229 222 216 213 211 204 197 193 186 183 178 174 172 167 165 137 131 138 138 132 
98 101 109 113 120 134 152 132 122 121 124 128 130 134 135 132 134 132 131 131 
130 128 128 130 134 137 135 120 121 126 121 123 139 143 144 142 141 145 136 135 
137 139 136 157 93 88 90 90 90 92 94 93 95 97 96 99 100 100 101 99 
99 98 97 95 95 92 89 85 85 154 171 178 86 87 92 100 107 164 248 248 
248 247 247 246 245 243 240 238 233 230 226 222 216 210 216 202 213 196 189 185 
181 178 173 171 171 171 168 163 158 156 155 154 155 151 147 147 147 146 145 144 
143 141 139 150 133 129 125 114 110 105 123 133 141 154 142 124 124 128 131 135 
136 140 137 135 137 136 136 135 136 135 137 139 140 137 124 121 122 122 115 117 
133 144 145 141 141 144 138 135 135 139 137 139 92 89 91 92 93 93 95 95 
95 96 98 100 99 98 101 100 99 98 97 96 96 92 91 87 85 135 163 167 
92 87 91 96 103 125 192 187 183 181 177 174 172 168 168 167 163 163 161 159 
156 166 167 169 177 146 146 146 145 144 143 144 147 147 145 143 142 141 141 141 
143 142 140 140 140 140 141 140 140 140 139 141 137 127 122 114 107 111 133 145 
151 139 133 126 130 134 138 141 143 142 134 136 140 138 136 141 140 141 142 143 
136 127 122 124 119 116 114 111 129 140 145 141 140 143 140 136 134 139 139 137 
90 89 90 92 91 93 94 95 97 95 95 99 100 100 101 100 99 100 98 96 
96 93 92 88 85 100 162 159 104 88 89 95 101 112 153 148 147 145 143 143 
143 144 146 145 144 144 144 143 142 191 143 194 147 140 140 141 140 141 140 141 
143 142 141 141 139 138 139 140 145 144 140 142 144 153 157 154 152 155 156 162 
162 125 122 118 111 121 126 134 132 119 132 129 136 141 141 140 137 134 126 135 
136 139 136 143 143 145 142 133 125 124 123 125 119 115 114 109 125 131 144 141 
141 142 144 136 134 136 140 136 88 89 90 92 92 93 95 95 95 97 95 98 
100 100 101 100 99 99 98 99 97 94 94 90 88 85 151 151 115 87 89 93 
99 105 142 140 139 138 138 139 139 138 138 139 140 144 142 140 139 213 143 210 
143 150 145 142 142 143 143 143 142 138 142 146 150 148 158 167 191 188 164 177 
176 173 179 181 178 178 177 182 192 134 130 118 111 122 127 119 120 113 124 134 
139 137 134 121 114 130 127 139 139 142 139 146 141 135 126 122 124 124 124 123 
119 120 118 111 127 124 136 142 141 143 147 137 134 136 141 137 89 91 91 92 
94 94 96 97 97 96 96 97 99 101 101 101 99 98 99 99 98 95 95 93 
90 86 145 145 114 88 89 92 97 102 132 134 129 132 174 183 169 166 167 169 
171 177 178 170 160 195 168 197 164 170 172 160 161 162 160 156 149 145 150 161 
164 162 159 169 190 190 187 212 209 176 179 187 192 193 185 185 195 198 130 124 
128 125 131 127 117 113 112 122 132 125 116 115 113 130 128 142 142 143 147 136 
126 122 123 123 128 125 125 119 121 123 121 128 130 134 134 141 141 142 148 138 
135 136 141 140 89 91 92 92 94 95 96 96 97 97 98 98 101 101 101 101 
99 99 99 100 99 96 96 94 92 87 123 149 122 87 89 90 96 100 121 142 
137 159 207 212 198 197 191 183 180 192 198 190 187 179 200 176 165 174 177 171 
165 170 176 171 170 162 164 176 174 166 158 159 162 165 182 210 205 171 175 184 
192 196 194 185 194 177 172 134 129 117 135 128 115 118 109 118 116 119 113 114 
116 134 138 140 139 131 116 123 121 125 126 130 131 125 122 119 122 123 130 146 
115 147 140 137 141 142 147 141 137 136 139 142 89 91 92 93 94 96 95 95 
97 96 99 99 100 102 100 101 98 99 100 100 99 96 97 95 94 89 99 151 
123 87 89 89 94 99 120 161 160 163 202 208 194 196 194 181 166 191 203 199 
199 174 210 165 165 163 172 172 165 172 181 180 177 167 168 184 184 176 166 168 
170 166 166 173 172 180 184 182 188 205 202 188 187 148 220 236 119 123 121 116 
111 113 110 113 111 117 113 112 117 129 135 126 120 112 121 122 128 130 130 132 
127 120 117 122 123 134 131 146 147 142 139 137 141 143 145 144 138 136 138 145 
89 91 93 94 95 96 97 97 98 96 99 101 101 103 101 100 100 99 99 100 
100 98 97 96 95 91 90 147 123 87 89 89 93 97 116 169 172 155 169 178 
183 184 186 179 178 196 205 193 210 182 191 168 170 169 170 174 167 166 174 173 
174 162 165 181 179 176 179 185 189 182 165 161 167 184 182 177 194 206 210 200 
198 143 170 133 140 122 106 112 113 109 112 110 110 114 114 113 116 114 119 116 
116 108 130 131 131 131 131 128 122 118 119 122 133 135 136 124 153 132 137 145 
135 142 142 148 140 138 140 145 